<?xml version="1.0" encoding="UTF-8" standalone="no"?>
<svg
   xmlns:dc="http://purl.org/dc/elements/1.1/"
   xmlns:cc="http://creativecommons.org/ns#"
   xmlns:rdf="http://www.w3.org/1999/02/22-rdf-syntax-ns#"
   xmlns:svg="http://www.w3.org/2000/svg"
   xmlns="http://www.w3.org/2000/svg"
   id="svg49"
   height="13.052777mm"
   width="48.683333mm"
   version="1.0">
  <metadata
     id="metadata53">
    <rdf:RDF>
      <cc:Work
         rdf:about="">
        <dc:format>image/svg+xml</dc:format>
        <dc:type
           rdf:resource="http://purl.org/dc/dcmitype/StillImage" />
      </cc:Work>
    </rdf:RDF>
  </metadata>
  <defs
     id="defs3">
    <pattern
       y="0"
       x="0"
       height="6"
       width="6"
       patternUnits="userSpaceOnUse"
       id="WMFhbasepattern" />
  </defs>
  <path
     id="path5"
     d="  M 0,0   L 182.66667,0   L 182.66667,47.944637   L 0,47.944637   z "
     style="fill:none;stroke:#000000;stroke-width:0.055370316px;stroke-linecap:round;stroke-linejoin:round;stroke-miterlimit:4;stroke-dasharray:none;stroke-opacity:1;" />
  <path
     id="path7"
     d="  M 29.235526,7.4186851   L 27.795898,7.2525952   L 26.41164,6.8096886   L 25.248863,6.0346021   L 24.252198,5.0380623   L 23.477013,3.8754325   L 23.034051,2.4913495   L 22.86794,1.0519031   L 16.444983,1.0519031   L 16.278872,2.4913495   L 15.78054,3.8754325   L 15.060725,5.0380623   L 14.06406,6.0346021   L 12.845913,6.8096886   L 11.517025,7.2525952   L 10.077397,7.4186851   L 0.44296251,7.4186851   L 0.44296251,10.519031   L 38.81459,10.519031   L 38.81459,7.4186851   L 29.235526,7.4186851   L 29.235526,7.4186851  z   "
     style="fill:#fefefe;fill-rule:nonzero;fill-opacity:1;stroke:#fefefe;stroke-width:0.055370316px;stroke-linecap:round;stroke-linejoin:round;stroke-miterlimit:4;stroke-dasharray:none;stroke-opacity:1;" />
  <path
     id="path9"
     d="  M 19.656462,23.529412   L 19.711832,23.474048   L 19.822572,23.418685   L 21.040719,22.477509   L 22.092755,21.591696   L 22.97868,20.705882   L 22.591088,20.429066   L 22.203496,20.152249   L 21.20683,19.211073   L 20.320905,18.103806   L 19.656462,16.941176   L 18.936647,18.15917   L 18.106093,19.211073   L 17.054057,20.152249   L 16.721835,20.429066   L 16.334243,20.705882   L 17.220168,21.591696   L 18.272204,22.477509   L 19.490351,23.418685   L 19.545721,23.474048   L 19.656462,23.529412   L 19.656462,23.529412  z   "
     style="fill:#fefefe;fill-rule:nonzero;fill-opacity:1;stroke:#fefefe;stroke-width:0.055370316px;stroke-linecap:round;stroke-linejoin:round;stroke-miterlimit:4;stroke-dasharray:none;stroke-opacity:1;" />
  <path
     id="path11"
     d="  M 25.027382,28.346021   L 27.020713,26.795848   L 27.795898,26.131488   L 28.460342,25.411765   L 26.41164,23.584775   L 24.473679,21.979239   L 23.587754,22.920415   L 22.480348,23.861592   L 21.262201,24.802768   L 22.369607,25.799308   L 23.643124,26.961938   L 25.027382,28.346021   L 25.027382,28.346021  z   "
     style="fill:#fefefe;fill-rule:nonzero;fill-opacity:1;stroke:#fefefe;stroke-width:0.055370316px;stroke-linecap:round;stroke-linejoin:round;stroke-miterlimit:4;stroke-dasharray:none;stroke-opacity:1;" />
  <path
     id="path13"
     d="  M 20.653127,12.290657   L 20.653127,12.401384   L 20.653127,12.401384   L 20.653127,13.121107   L 20.708498,13.951557   L 20.929979,14.83737   L 21.262201,15.778547   L 21.760533,16.775087   L 22.480348,17.716263   L 23.421643,18.602076   L 23.753865,18.878893   L 24.086087,19.100346   L 24.63979,17.937716   L 24.972012,16.66436   L 25.138123,15.391003   L 25.193493,13.951557   L 25.193493,13.287197   L 25.193493,12.678201   L 25.193493,12.290657   L 20.653127,12.290657   L 20.653127,12.290657  z   "
     style="fill:#fefefe;fill-rule:nonzero;fill-opacity:1;stroke:#fefefe;stroke-width:0.055370316px;stroke-linecap:round;stroke-linejoin:round;stroke-miterlimit:4;stroke-dasharray:none;stroke-opacity:1;" />
  <path
     id="path15"
     d="  M 31.173487,20.152249   L 30.896635,19.986159   L 30.619784,19.820069   L 29.789229,19.321799   L 29.124785,18.878893   L 28.571082,18.546713   L 27.685157,17.937716   L 26.854602,17.217993   L 26.41164,18.823529   L 25.636455,20.373702   L 26.909973,21.425606   L 28.23886,22.588235   L 29.623118,23.806228   L 30.287562,22.588235   L 30.785895,21.370242   L 31.173487,20.207612   L 31.173487,20.152249  z   "
     style="fill:#fefefe;fill-rule:nonzero;fill-opacity:1;stroke:#fefefe;stroke-width:0.055370316px;stroke-linecap:round;stroke-linejoin:round;stroke-miterlimit:4;stroke-dasharray:none;stroke-opacity:1;" />
  <path
     id="path17"
     d="  M 14.507022,31.00346   L 12.735172,33.217993   L 11.074063,35.598616   L 12.458321,36.650519   L 13.787208,37.757785   L 15.005355,38.920415   L 16.057391,37.148789   L 17.164797,35.598616   L 18.272204,34.214533   L 16.444983,32.553633   L 14.507022,31.00346   L 14.507022,31.00346  z   "
     style="fill:#fefefe;fill-rule:nonzero;fill-opacity:1;stroke:#fefefe;stroke-width:0.055370316px;stroke-linecap:round;stroke-linejoin:round;stroke-miterlimit:4;stroke-dasharray:none;stroke-opacity:1;" />
  <path
     id="path19"
     d="  M 24.805901,31.00346   L 22.86794,32.553633   L 20.985349,34.214533   L 22.148126,35.598616   L 23.255532,37.148789   L 24.252198,38.920415   L 25.525715,37.757785   L 26.854602,36.650519   L 28.23886,35.598616   L 26.577751,33.217993   L 24.805901,31.00346   L 24.805901,31.00346  z   "
     style="fill:#fefefe;fill-rule:nonzero;fill-opacity:1;stroke:#fefefe;stroke-width:0.055370316px;stroke-linecap:round;stroke-linejoin:round;stroke-miterlimit:4;stroke-dasharray:none;stroke-opacity:1;" />
  <path
     id="path21"
     d="  M 14.06406,13.951557   L 14.11943,15.391003   L 14.285541,16.66436   L 14.673133,17.937716   L 15.226836,19.100346   L 15.559058,18.878893   L 15.89128,18.602076   L 16.832576,17.716263   L 17.497019,16.775087   L 17.995352,15.83391   L 18.382944,14.892734   L 18.549055,14.00692   L 18.659796,13.231834   L 18.659796,12.512111   L 18.659796,12.346021   L 18.659796,12.346021   L 18.659796,12.290657   L 19.988683,12.290657   L 14.06406,12.290657   L 14.06406,12.678201   L 14.06406,13.287197   L 14.06406,13.951557   L 14.06406,13.951557  z   "
     style="fill:#fefefe;fill-rule:nonzero;fill-opacity:1;stroke:#fefefe;stroke-width:0.055370316px;stroke-linecap:round;stroke-linejoin:round;stroke-miterlimit:4;stroke-dasharray:none;stroke-opacity:1;" />
  <path
     id="path23"
     d="  M 5.5924017,16.608997   L 5.5924017,15.612457   L 4.8172173,15.889273   L 3.9312923,16.276817   L 2.823886,16.66436   L 1.6611094,17.051903   L 0.99666566,17.273356   L 0.49833283,17.49481   L 0.49833283,21.148789   L 0.49833283,21.868512   L 0.60907346,22.809689   L 1.7718501,21.923875   L 3.1007376,21.038062   L 4.4849955,20.152249   L 5.8692533,19.266436   L 5.7031424,18.269896   L 5.5924017,17.439446   L 5.5924017,16.885813   L 5.5924017,16.608997   L 5.5924017,16.608997  z   "
     style="fill:#fefefe;fill-rule:nonzero;fill-opacity:1;stroke:#fefefe;stroke-width:0.055370316px;stroke-linecap:round;stroke-linejoin:round;stroke-miterlimit:4;stroke-dasharray:none;stroke-opacity:1;" />
  <path
     id="path25"
     d="  M 8.2501768,25.190311   L 7.4749924,23.861592   L 6.865919,22.532872   L 6.3675861,21.259516   L 5.2048095,22.034602   L 4.0420329,22.809689   L 2.9346267,23.584775   L 1.937961,24.304498   L 1.1074063,24.913495   L 1.5503688,26.186851   L 2.1040719,27.460208   L 2.823886,28.733564   L 3.8205517,29.951557   L 5.1494392,28.401384   L 6.6444377,26.795848   L 8.2501768,25.190311  z   "
     style="fill:#fefefe;fill-rule:nonzero;fill-opacity:1;stroke:#fefefe;stroke-width:0.055370316px;stroke-linecap:round;stroke-linejoin:round;stroke-miterlimit:4;stroke-dasharray:none;stroke-opacity:1;" />
  <path
     id="path27"
     d="  M 14.839244,21.979239   L 12.901283,23.584775   L 10.852582,25.411765   L 11.517025,26.131488   L 12.29221,26.795848   L 14.285541,28.346021   L 15.669799,26.961938   L 16.943316,25.799308   L 18.050722,24.802768   L 16.777205,23.861592   L 15.725169,22.920415   L 14.839244,21.979239   L 14.839244,21.979239  z   "
     style="fill:#fefefe;fill-rule:nonzero;fill-opacity:1;stroke:#fefefe;stroke-width:0.055370316px;stroke-linecap:round;stroke-linejoin:round;stroke-miterlimit:4;stroke-dasharray:none;stroke-opacity:1;" />
  <path
     id="path29"
     d="  M 0.99666566,15.224913   L 1.7718501,14.948097   L 2.6024048,14.67128   L 3.4329595,14.3391   L 4.1527736,14.062284   L 4.761847,13.84083   L 5.2048095,13.619377   L 5.4262908,13.453287   L 5.5370314,13.287197   L 5.5924017,12.955017   L 5.5924017,12.290657   L 7.5303627,12.290657   L 7.5303627,16.608997   L 7.5303627,16.83045   L 7.5857331,17.32872   L 7.6964737,18.15917   L 8.4716581,17.6609   L 9.1361018,17.217993   L 9.6344347,16.885813   L 10.686471,16.16609   L 11.461655,15.446367   L 11.959988,14.726644   L 12.126099,13.951557   L 12.126099,12.290657   L 0.49833283,12.290657   L 0.49833283,15.391003   L 0.71981409,15.33564   L 0.99666566,15.224913   L 0.99666566,15.224913  z   "
     style="fill:#fefefe;fill-rule:nonzero;fill-opacity:1;stroke:#fefefe;stroke-width:0.055370316px;stroke-linecap:round;stroke-linejoin:round;stroke-miterlimit:4;stroke-dasharray:none;stroke-opacity:1;" />
  <path
     id="path31"
     d="  M 27.186824,12.290657   L 27.186824,13.951557   L 27.352935,14.726644   L 27.851268,15.446367   L 28.626452,16.16609   L 29.678488,16.885813   L 30.176821,17.217993   L 30.841265,17.6609   L 31.616449,18.15917   L 31.72719,17.32872   L 31.78256,16.83045   L 31.78256,16.608997   L 31.78256,12.290657   L 33.720521,12.290657   L 33.720521,12.955017   L 33.775892,13.287197   L 33.886632,13.453287   L 34.108114,13.619377   L 34.495706,13.785467   L 35.104779,14.062284   L 35.879964,14.3391   L 36.710518,14.615917   L 37.541073,14.948097   L 38.316257,15.224913   L 38.593109,15.280277   L 38.81459,15.391003   L 38.81459,12.290657   L 27.186824,12.290657   L 27.186824,12.290657  z   "
     style="fill:#fefefe;fill-rule:nonzero;fill-opacity:1;stroke:#fefefe;stroke-width:0.055370316px;stroke-linecap:round;stroke-linejoin:round;stroke-miterlimit:4;stroke-dasharray:none;stroke-opacity:1;" />
  <path
     id="path33"
     d="  M 38.81459,20.318339   L 38.81459,17.49481   L 38.260887,17.273356   L 37.651814,17.051903   L 36.101445,16.49827   L 34.772557,16   L 33.720521,15.612457   L 33.720521,16.608997   L 33.720521,16.885813   L 33.665151,17.439446   L 33.609781,18.269896   L 33.44367,19.266436   L 34.827928,20.152249   L 36.156815,21.038062   L 37.485703,21.923875   L 38.648479,22.809689   L 38.75922,21.868512   L 38.81459,21.148789   L 38.81459,20.318339   L 38.81459,20.318339  z   "
     style="fill:#fefefe;fill-rule:nonzero;fill-opacity:1;stroke:#fefefe;stroke-width:0.055370316px;stroke-linecap:round;stroke-linejoin:round;stroke-miterlimit:4;stroke-dasharray:none;stroke-opacity:1;" />
  <path
     id="path35"
     d="  M 19.656462,35.653979   L 18.493685,37.038062   L 17.441649,38.643599   L 16.389613,40.470588   L 17.220168,41.688581   L 17.884611,43.017301   L 18.272204,44.456747   L 18.438315,45.896194   L 20.874608,45.896194   L 20.985349,44.456747   L 21.428312,43.017301   L 22.037385,41.688581   L 22.92331,40.470588   L 21.871274,38.643599   L 20.819238,37.038062   L 19.656462,35.653979  z   "
     style="fill:#fefefe;fill-rule:nonzero;fill-opacity:1;stroke:#fefefe;stroke-width:0.055370316px;stroke-linecap:round;stroke-linejoin:round;stroke-miterlimit:4;stroke-dasharray:none;stroke-opacity:1;" />
  <path
     id="path37"
     d="  M 12.956654,29.785467   L 11.018693,28.290657   L 10.188138,27.515571   L 9.4129534,26.740484   L 7.8625846,28.290657   L 6.4229565,29.84083   L 5.2048095,31.391003   L 6.4783268,32.387543   L 7.9179549,33.384083   L 9.4683237,34.491349   L 11.129433,32.055363   L 12.956654,29.785467   L 12.956654,29.785467  z   "
     style="fill:#fefefe;fill-rule:nonzero;fill-opacity:1;stroke:#fefefe;stroke-width:0.055370316px;stroke-linecap:round;stroke-linejoin:round;stroke-miterlimit:4;stroke-dasharray:none;stroke-opacity:1;" />
  <path
     id="path39"
     d="  M 8.6931393,19.820069   L 8.4162878,19.986159   L 8.1394362,20.152249   L 8.4716581,21.314879   L 9.0253612,22.588235   L 9.689805,23.806228   L 11.738507,21.979239   L 13.676468,20.373702   L 12.901283,18.823529   L 12.40295,17.217993   L 11.627766,17.937716   L 10.741841,18.546713   L 10.188138,18.878893   L 9.4683237,19.321799   L 8.6931393,19.820069   L 8.6931393,19.820069  z   "
     style="fill:#fefefe;fill-rule:nonzero;fill-opacity:1;stroke:#fefefe;stroke-width:0.055370316px;stroke-linecap:round;stroke-linejoin:round;stroke-miterlimit:4;stroke-dasharray:none;stroke-opacity:1;" />
  <path
     id="path41"
     d="  M 23.477013,29.564014   L 22.369607,28.456747   L 21.372941,27.515571   L 20.431646,26.685121   L 19.656462,26.020761   L 18.825907,26.685121   L 17.939982,27.515571   L 16.887946,28.456747   L 15.83591,29.564014   L 17.773871,31.114187   L 19.656462,32.775087   L 21.539052,31.114187   L 23.477013,29.564014  z   "
     style="fill:#fefefe;fill-rule:nonzero;fill-opacity:1;stroke:#fefefe;stroke-width:0.055370316px;stroke-linecap:round;stroke-linejoin:round;stroke-miterlimit:4;stroke-dasharray:none;stroke-opacity:1;" />
  <path
     id="path43"
     d="  M 29.89997,26.740484   L 29.124785,27.515571   L 28.294231,28.290657   L 26.35627,29.785467   L 28.18349,32.055363   L 29.844599,34.491349   L 31.394968,33.384083   L 32.834596,32.387543   L 34.108114,31.391003   L 32.834596,29.84083   L 31.450338,28.290657   L 29.89997,26.740484   L 29.89997,26.740484  z   "
     style="fill:#fefefe;fill-rule:nonzero;fill-opacity:1;stroke:#fefefe;stroke-width:0.055370316px;stroke-linecap:round;stroke-linejoin:round;stroke-miterlimit:4;stroke-dasharray:none;stroke-opacity:1;" />
  <path
     id="path45"
     d="  M 32.889967,21.259516   L 32.447004,22.532872   L 31.837931,23.861592   L 31.062746,25.190311   L 32.668485,26.740484   L 34.163484,28.401384   L 35.492371,29.951557   L 36.433667,28.733564   L 37.208851,27.460208   L 37.762554,26.186851   L 38.205517,24.913495   L 37.374962,24.304498   L 36.378296,23.584775   L 35.27089,22.809689   L 34.108114,22.034602   L 32.889967,21.259516  z   "
     style="fill:#fefefe;fill-rule:nonzero;fill-opacity:1;stroke:#fefefe;stroke-width:0.055370316px;stroke-linecap:round;stroke-linejoin:round;stroke-miterlimit:4;stroke-dasharray:none;stroke-opacity:1;" />
  <path
     id="path47"
     d="  M 139.86541,22.200692   L 139.75467,19.930796   L 139.42245,17.882353   L 138.86875,15.889273   L 138.03819,14.117647   L 137.04153,12.401384   L 135.76801,10.851211   L 134.32838,9.5224913   L 132.66727,8.4152249   L 130.84005,7.5294118   L 128.84672,6.9204152   L 126.63191,6.532872   L 124.30636,6.4221453   L 122.14691,6.532872   L 120.15358,6.9204152   L 118.21562,7.5294118   L 116.3884,8.3598616   L 114.67192,9.467128   L 113.01081,10.851211   L 111.51581,12.401384   L 111.51581,7.5294118   L 101.6599,7.5294118   L 101.6599,45.896194   L 112.78933,45.896194   L 112.78933,20.871972   L 113.95211,19.432526   L 115.22562,18.214533   L 116.60988,17.217993   L 118.04951,16.553633   L 119.65525,16.16609   L 121.31636,16   L 122.9221,16.16609   L 124.36173,16.49827   L 125.63524,17.107266   L 126.74265,17.937716   L 127.46246,18.768166   L 128.01617,19.764706   L 128.45913,20.927336   L 128.68061,22.200692   L 128.79135,23.640138   L 128.79135,45.896194   L 139.86541,45.896194   L 139.86541,22.200692   L 139.86541,22.200692  z    M 78.293624,43.017301   L 79.401031,41.743945   L 80.286956,40.415225   L 80.896029,38.920415   L 81.228251,37.259516   L 81.338992,35.543253   L 81.228251,33.882353   L 80.951399,32.387543   L 80.397696,31.058824   L 79.677882,29.896194   L 78.681217,28.788927   L 77.51844,27.903114   L 76.134182,27.128028   L 74.583813,26.519031   L 76.134182,25.743945   L 77.46307,24.858131   L 78.570476,23.806228   L 79.401031,22.532872   L 80.010104,21.093426   L 80.342326,19.487889   L 80.453067,17.716263   L 80.342326,16.055363   L 79.954734,14.449827   L 79.34566,13.010381   L 78.459735,11.681661   L 77.352329,10.463668   L 76.244923,9.5778547   L 74.916035,8.8581315   L 73.421037,8.3044983   L 71.759927,7.8615917   L 69.877337,7.6401384   L 67.828635,7.5294118   L 44.960695,7.5294118   L 44.960695,45.896194   L 68.493079,45.896194   L 70.652521,45.84083   L 72.590482,45.619377   L 74.362332,45.176471   L 75.857331,44.622837   L 77.186218,43.903114   L 78.293624,43.017301   L 78.293624,43.017301  z    M 56.034758,15.114187   L 64.395675,15.114187   L 65.724563,15.224913   L 66.776599,15.50173   L 67.662524,15.889273   L 68.382338,16.49827   L 68.880671,17.273356   L 69.157522,18.214533   L 69.268263,19.321799   L 69.157522,20.373702   L 68.880671,21.259516   L 68.382338,21.979239   L 67.717894,22.588235   L 66.831969,22.975779   L 65.779933,23.197232   L 64.506416,23.307958   L 56.034758,23.307958   L 56.034758,15.114187  z    M 56.090128,38.311419   L 56.090128,30.00692   L 65.22623,30.00692   L 66.555118,30.117647   L 67.717894,30.3391   L 68.65919,30.782007   L 69.379004,31.391003   L 69.877337,32.16609   L 70.209558,33.107266   L 70.320299,34.269896   L 70.209558,35.321799   L 69.877337,36.262976   L 69.379004,36.982699   L 68.65919,37.591696   L 67.717894,37.979239   L 66.555118,38.256055   L 65.22623,38.311419   L 56.090128,38.311419  z    M 84.938062,22.422145   L 96.067495,22.422145   L 96.067495,7.5294118   L 84.938062,7.5294118   L 84.938062,22.422145  z    M 182.33444,21.813149   L 181.89148,19.709343   L 181.22704,17.771626   L 180.50722,15.889273   L 179.56593,14.117647   L 178.40315,12.512111   L 177.01889,11.072664   L 175.30241,9.7439446   L 173.36445,8.5813149   L 171.64797,7.8062284   L 169.76538,7.1972318   L 167.77205,6.7543253   L 165.66798,6.532872   L 163.3978,6.4221453   L 161.12761,6.532872   L 158.85743,6.9757785   L 156.64262,7.6401384   L 154.48318,8.5259516   L 152.3791,9.7439446   L 150.3304,11.128028   L 148.89077,12.401384   L 147.61726,13.896194   L 146.50985,15.612457   L 145.51319,17.49481   L 144.68263,19.598616   L 144.12893,21.813149   L 143.79671,24.193772   L 143.68597,26.740484   L 143.79671,29.397924   L 144.1843,31.889273   L 144.79337,34.15917   L 145.73467,36.318339   L 146.89744,38.256055   L 148.2817,40.083045   L 149.99818,41.688581   L 151.8254,43.128028   L 153.8741,44.290657   L 155.97818,45.287197   L 158.24836,46.062284   L 160.68465,46.615917   L 163.23169,46.948097   L 165.88946,47.058824   L 169.15631,46.948097   L 172.14631,46.67128   L 174.97019,46.17301   L 177.5726,45.508651   L 179.95352,44.622837   L 179.95352,35.930796   L 177.24038,36.927336   L 174.41649,37.647059   L 171.48186,38.089965   L 168.38113,38.256055   L 165.88946,38.145329   L 163.56391,37.757785   L 161.45984,37.148789   L 159.46651,36.262976   L 158.08225,35.432526   L 156.91947,34.380623   L 156.03355,33.217993   L 155.31373,31.83391   L 154.87077,30.3391   L 181.89148,30.3391   L 182.33444,28.235294   L 182.6113,26.076125   L 182.55593,23.916955   L 182.33444,21.813149   L 182.33444,21.813149  z    M 171.86946,23.141869   L 154.76003,23.141869   L 154.92614,21.647059   L 155.25836,20.318339   L 155.81206,19.100346   L 156.53188,18.048443   L 157.47317,17.107266   L 158.85743,16.16609   L 160.4078,15.446367   L 162.01354,15.058824   L 163.78539,14.892734   L 165.55724,15.00346   L 167.10761,15.33564   L 168.38113,15.889273   L 169.48853,16.719723   L 170.37446,17.716263   L 171.20501,19.100346   L 171.70334,20.484429   L 171.92483,21.813149   L 171.86946,23.141869   L 171.86946,23.141869  z    M 84.938062,45.896194   L 96.067495,45.896194   L 96.067495,31.058824   L 84.938062,31.058824   L 84.938062,45.896194  z   "
     style="fill:#fefefe;fill-rule:nonzero;fill-opacity:1;stroke:#fefefe;stroke-width:0.055370316px;stroke-linecap:round;stroke-linejoin:round;stroke-miterlimit:4;stroke-dasharray:none;stroke-opacity:1;" />
</svg>
