<?xml version="1.0" encoding="UTF-8" standalone="no"?>
<svg
   xmlns:dc="http://purl.org/dc/elements/1.1/"
   xmlns:cc="http://creativecommons.org/ns#"
   xmlns:rdf="http://www.w3.org/1999/02/22-rdf-syntax-ns#"
   xmlns:svg="http://www.w3.org/2000/svg"
   xmlns="http://www.w3.org/2000/svg"
   id="svg9"
   height="68.791667mm"
   width="46.566667mm"
   version="1.0">
  <metadata
     id="metadata13">
    <rdf:RDF>
      <cc:Work
         rdf:about="">
        <dc:format>image/svg+xml</dc:format>
        <dc:type
           rdf:resource="http://purl.org/dc/dcmitype/StillImage" />
      </cc:Work>
    </rdf:RDF>
  </metadata>
  <defs
     id="defs3">
    <pattern
       y="0"
       x="0"
       height="6"
       width="6"
       patternUnits="userSpaceOnUse"
       id="WMFhbasepattern" />
  </defs>
  <path
     id="path5"
     d="  M 0,0   L 174.66667,0   L 174.66667,258.66667   L 0,258.66667   z "
     style="fill:none;stroke:#000000;stroke-width:0.078396171px;stroke-linecap:round;stroke-linejoin:round;stroke-miterlimit:4;stroke-dasharray:none;stroke-opacity:1;" />
  <path
     id="path7"
     d="  M 172.23639,29.324442   L 129.43208,29.324442   L 125.82585,29.089219   L 122.37642,28.461958   L 119.16218,27.442659   L 116.02633,25.952915   L 113.12567,24.227948   L 110.4602,22.110943   L 108.10832,19.758715   L 105.99162,17.092856   L 104.26691,14.191775   L 102.77738,11.133879   L 101.75823,7.8407598   L 101.13106,4.3908255   L 100.89587,0.78407598   L 72.359665,0.78407598   L 72.124476,4.3908255   L 71.497307,7.8407598   L 70.399761,11.133879   L 68.98863,14.191775   L 67.263914,17.092856   L 65.147217,19.758715   L 62.716936,22.110943   L 60.129862,24.227948   L 57.229204,25.952915   L 54.093357,27.442659   L 50.800718,28.461958   L 47.351287,29.089219   L 43.823459,29.324442   L 0.94075404,29.324442   L 0.94075404,42.967364   L 172.23639,42.967364   L 172.23639,29.324442   L 172.23639,29.324442  z    M 121.20048,69.625947   L 121.04369,66.803274   L 120.57331,64.137415   L 119.86774,61.70678   L 118.84859,59.354552   L 117.59425,57.237547   L 115.94794,55.277357   L 114.14482,53.55239   L 112.02813,52.141053   L 109.75464,51.043346   L 107.16756,50.25927   L 104.4237,49.788825   L 101.44464,49.63201   L 98.308797,49.867232   L 95.329743,50.494493   L 92.585877,51.5922   L 89.920407,53.003536   L 87.490126,54.963726   L 85.216637,57.237547   L 85.216637,51.043346   L 72.751646,51.043346   L 72.751646,99.734465   L 86.862956,99.734465   L 86.862956,67.979388   L 88.352484,66.097605   L 89.920407,64.529453   L 91.723519,63.353339   L 93.526631,62.490856   L 95.564931,62.02041   L 97.681628,61.785187   L 99.719928,61.942003   L 101.52304,62.412448   L 103.09096,63.196524   L 104.50209,64.215823   L 105.67804,65.62716   L 106.462,67.273719   L 106.93238,69.233909   L 107.08917,71.429322   L 107.08917,99.734465   L 121.20048,99.734465   L 121.20048,69.625947   L 121.20048,69.625947  z    M 43.19629,95.9709   L 44.607421,94.402748   L 45.626571,92.677781   L 46.410533,90.795999   L 46.88091,88.757401   L 47.037702,86.561988   L 46.88091,84.209761   L 46.332136,82.092755   L 45.469779,80.210973   L 44.21544,78.564413   L 42.647516,77.153077   L 40.766008,75.976963   L 38.414123,75.114479   L 40.452424,74.173588   L 42.098743,72.997474   L 43.509874,71.664545   L 44.529025,70.017985   L 45.312986,68.21461   L 45.783363,66.176013   L 45.940156,63.902193   L 45.783363,61.785187   L 45.312986,59.824997   L 44.529025,58.021623   L 43.431478,56.296656   L 42.020347,54.806911   L 40.53082,53.630797   L 38.8845,52.689906   L 37.002992,51.984238   L 34.886296,51.513792   L 32.534411,51.200162   L 29.947337,51.043346   L 0.94075404,51.043346   L 0.94075404,99.734465   L 30.731299,99.734465   L 33.475165,99.57765   L 35.983842,99.264019   L 38.178935,98.793574   L 40.138839,98.087905   L 41.785159,97.147014   L 43.19629,95.9709   L 43.19629,95.9709  z    M 14.973668,60.687481   L 25.557151,60.687481   L 27.203471,60.765889   L 28.614602,61.157927   L 29.712148,61.628372   L 30.652902,62.412448   L 31.280072,63.353339   L 31.593656,64.529453   L 31.750449,65.94079   L 31.593656,67.508942   L 31.044883,68.763464   L 30.260922,69.782762   L 29.084979,70.488431   L 27.517056,70.880469   L 25.713944,71.037284   L 14.973668,71.037284   L 14.973668,60.687481   L 14.973668,60.687481  z    M 15.052065,90.09033   L 15.052065,79.505305   L 26.576302,79.505305   L 28.301017,79.66212   L 29.790545,79.97575   L 30.966487,80.524603   L 31.907241,81.308679   L 32.534411,82.249571   L 32.926391,83.504092   L 33.083184,84.915429   L 32.926391,86.248358   L 32.534411,87.424472   L 31.907241,88.365363   L 30.966487,89.149439   L 29.790545,89.619885   L 28.301017,89.933515   L 26.576302,90.09033   L 15.052065,90.09033   L 15.052065,90.09033  z    M 51.58468,69.86117   L 65.69599,69.86117   L 65.69599,51.043346   L 51.58468,51.043346   L 51.58468,69.86117  z    M 173.72591,69.155502   L 172.86355,65.705567   L 171.68761,62.412448   L 170.19808,59.432959   L 168.78695,57.394362   L 166.98384,55.51258   L 164.86715,53.86602   L 162.35847,52.376276   L 159.53621,51.200162   L 156.55715,50.337678   L 153.26451,49.867232   L 149.73668,49.63201   L 146.83603,49.867232   L 144.01376,50.337678   L 141.1915,51.200162   L 138.44764,52.376276   L 135.78217,53.86602   L 133.19509,55.669395   L 131.39198,57.237547   L 129.74566,59.119329   L 128.33453,61.236334   L 127.08019,63.66697   L 126.06104,66.332828   L 125.27708,69.155502   L 124.8851,72.213398   L 124.72831,75.42811   L 124.8851,78.721229   L 125.35548,81.857533   L 126.21783,84.837021   L 127.31538,87.50288   L 128.80491,90.011923   L 130.60802,92.285743   L 132.72472,94.324341   L 135.54698,96.441346   L 138.52603,98.087905   L 141.74028,99.420835   L 145.2681,100.36173   L 148.95272,100.91058   L 152.87253,101.1458   L 157.02753,100.98899   L 160.86894,100.59695   L 164.39677,100.0481   L 167.68941,99.185612   L 170.66846,98.087905   L 170.66846,87.032434   L 167.29743,88.286956   L 163.6912,89.227847   L 159.92819,89.7767   L 156.00838,90.011923   L 152.87253,89.855108   L 149.97187,89.384662   L 147.22801,88.600586   L 144.79773,87.50288   L 142.99461,86.405173   L 141.58348,85.072244   L 140.40754,83.5825   L 139.46679,81.857533   L 138.91801,79.97575   L 173.09874,79.97575   L 173.8827,76.369001   L 174.0395,72.762251   L 173.72591,69.155502   L 173.72591,69.155502  z    M 160.47696,70.802061   L 138.83962,70.802061   L 138.99641,68.998686   L 139.38839,67.273719   L 140.09396,65.705567   L 141.03471,64.372638   L 142.28905,63.196524   L 144.01376,61.942003   L 145.89527,61.079519   L 148.01197,60.609073   L 150.28546,60.373851   L 152.48055,60.530666   L 154.36206,61.001111   L 156.08677,61.70678   L 157.41951,62.647671   L 158.51706,63.9806   L 159.6146,65.705567   L 160.24177,67.430535   L 160.55536,69.155502   L 160.47696,70.802061   L 160.47696,70.802061  z    M 51.58468,99.656057   L 65.69599,99.656057   L 65.69599,80.916641   L 51.58468,80.916641   L 51.58468,99.656057  z    M 140.95631,141.83935   L 138.91801,140.50642   L 136.95811,139.3303   L 134.68462,137.91897   L 132.64632,136.66444   L 130.84321,135.48833   L 129.19689,134.46903   L 127.86415,133.60655   L 125.51227,131.95999   L 123.16038,130.31343   L 121.04369,128.51005   L 119.00539,126.62827   L 117.28067,124.51127   L 116.6535,128.66687   L 115.63435,132.66566   L 114.22322,136.58604   L 112.42011,140.50642   L 110.14662,144.34839   L 114.14482,147.64151   L 118.37822,151.16985   L 122.69001,154.93341   L 127.15859,158.85379   L 131.54877,162.85258   L 134.29264,158.54016   L 136.48773,154.22775   L 138.36924,149.91533   L 139.78037,145.75973   L 140.95631,141.83935   L 140.95631,141.83935  z    M 121.12208,174.30009   L 124.10114,171.71264   L 126.845,168.88997   L 129.27528,166.06729   L 124.8067,161.9901   L 120.41652,158.06972   L 116.02633,154.38456   L 111.87133,150.77781   L 107.79473,147.48469   L 105.28606,150.46418   L 102.307,153.52208   L 98.935966,156.57997   L 95.17295,159.55946   L 90.939557,162.61736   L 90.547576,162.85258   L 90.233992,163.16621   L 89.842011,163.40143   L 92.1155,165.36162   L 94.702573,167.55704   L 97.524835,170.14449   L 100.58229,172.88875   L 103.71813,175.94665   L 107.01077,179.23977   L 110.38181,182.76811   L 115.71275,178.61251   L 121.12208,174.30009   L 121.12208,174.30009  z    M 107.24596,185.12034   L 104.26691,181.98404   L 101.28785,179.00455   L 98.465589,176.26028   L 95.80012,173.75124   L 93.213046,171.39901   L 90.782765,169.36041   L 88.587672,167.47863   L 86.627768,165.91048   L 84.667864,167.47863   L 82.472771,169.36041   L 80.04249,171.39901   L 77.455416,173.75124   L 74.789946,176.26028   L 71.889288,179.00455   L 68.98863,181.98404   L 66.009575,185.12034   L 71.340515,189.19753   L 76.514662,193.43154   L 81.610413,197.90078   L 86.627768,202.60523   L 91.566727,197.90078   L 96.740874,193.43154   L 101.91502,189.19753   L 107.24596,185.12034  z    M 86.627768,122.31585   L 85.687014,124.98171   L 84.432675,127.72598   L 82.943148,130.47024   L 81.140036,133.1361   L 79.023339,135.80196   L 76.514662,138.38941   L 73.614004,140.89845   L 71.105326,142.85864   L 68.439856,145.05406   L 70.870138,147.87673   L 73.6924,150.6994   L 76.828247,153.60048   L 80.512867,156.50157   L 84.589467,159.40265   L 85.451825,160.10832   L 86.627768,160.89239   L 87.80371,160.10832   L 88.666068,159.40265   L 92.742669,156.50157   L 96.348893,153.60048   L 99.563136,150.6994   L 102.3854,147.87673   L 104.81568,145.05406   L 102.15021,142.85864   L 99.563136,140.89845   L 96.740874,138.38941   L 94.232196,135.80196   L 92.1155,133.1361   L 90.312388,130.47024   L 88.822861,127.72598   L 87.568522,124.98171   L 86.627768,122.31585  z    M 59.345901,107.81045   L 59.345901,108.59452   L 59.345901,109.92745   L 59.345901,111.57401   L 59.345901,113.37739   L 59.345901,115.18076   L 59.424297,119.41477   L 59.737882,123.41356   L 60.286655,127.25553   L 61.227409,131.0191   L 62.403351,134.70425   L 64.049671,138.311   L 66.166367,141.83935   L 68.753441,139.72234   L 71.262118,137.84056   L 74.005984,135.40992   L 76.35787,132.90088   L 78.317774,130.39184   L 79.964093,127.72598   L 81.375224,125.13853   L 82.394375,122.55108   L 83.256732,119.96363   L 83.883902,117.45458   L 84.275883,115.10235   L 84.511071,112.82853   L 84.667864,110.78994   L 84.667864,109.3786   L 84.667864,108.12408   L 84.667864,107.81045   L 88.587672,107.81045   L 88.587672,108.12408   L 88.587672,109.3786   L 88.587672,110.78994   L 88.666068,112.82853   L 88.979653,115.10235   L 89.371634,117.45458   L 89.998803,119.96363   L 90.861161,122.55108   L 91.880311,125.13853   L 93.291442,127.72598   L 94.937762,130.39184   L 96.897666,132.90088   L 99.249551,135.40992   L 101.99342,137.84056   L 104.50209,139.72234   L 107.08917,141.83935   L 109.20586,138.311   L 110.77379,134.70425   L 112.02813,131.0191   L 112.96888,127.25553   L 113.51765,123.41356   L 113.83124,119.41477   L 113.90963,115.18076   L 113.90963,113.37739   L 113.83124,111.57401   L 113.83124,109.92745   L 113.90963,108.59452   L 113.90963,107.81045   L 59.345901,107.81045   L 59.345901,107.81045  z    M 52.133453,174.30009   L 57.542789,178.61251   L 62.873728,182.76811   L 66.244764,179.23977   L 69.537403,175.94665   L 72.67325,172.88875   L 75.652304,170.14449   L 78.474566,167.55704   L 81.140036,165.36162   L 83.413525,163.40143   L 83.021544,163.16621   L 82.707959,162.85258   L 82.315978,162.61736   L 78.082585,159.55946   L 74.319569,156.57997   L 70.948534,153.52208   L 67.969479,150.46418   L 65.382406,147.48469   L 61.384201,150.77781   L 57.150808,154.38456   L 52.839019,158.06972   L 48.448833,161.9901   L 43.980251,166.06729   L 46.410533,168.88997   L 49.154399,171.71264   L 52.133453,174.30009   L 52.133453,174.30009  z    M 45.391382,133.60655   L 44.058648,134.46903   L 42.412328,135.48833   L 40.609216,136.66444   L 38.492519,137.91897   L 36.297427,139.3303   L 34.337522,140.50642   L 32.299222,141.83935   L 33.475165,145.75973   L 34.886296,149.91533   L 36.689408,154.22775   L 38.962896,158.54016   L 41.628366,162.85258   L 46.096948,158.85379   L 50.56553,154.93341   L 54.877319,151.16985   L 59.110712,147.64151   L 63.108917,144.34839   L 60.835428,140.50642   L 59.032316,136.58604   L 57.621185,132.66566   L 56.602035,128.66687   L 55.974865,124.51127   L 54.171753,126.62827   L 52.211849,128.51005   L 50.016756,130.31343   L 47.743268,131.95999   L 45.391382,133.60655   L 45.391382,133.60655  z    M 49.624776,177.35799   L 46.488929,174.61372   L 43.666667,171.71264   L 41.079593,168.73315   L 36.454219,173.20238   L 31.985637,177.75003   L 27.752244,182.37607   L 23.832436,186.84531   L 20.226212,191.31454   L 23.283662,193.9804   L 26.733094,196.72466   L 30.49611,199.46893   L 34.494315,202.2916   L 38.727708,205.19268   L 43.039497,208.25058   L 47.037702,202.13479   L 51.349491,196.33263   L 55.739677,190.84409   L 60.208259,185.66919   L 54.955715,181.592   L 49.624776,177.35799  z    M 134.52783,165.59685   L 139.2316,170.14449   L 143.77858,174.77054   L 148.09037,179.39658   L 152.16697,184.02263   L 155.77319,188.57027   L 158.67385,185.19875   L 161.18253,181.82722   L 163.37762,178.37729   L 165.25913,174.92735   L 166.82705,171.47742   L 168.15978,168.10589   L 169.25733,164.81277   L 170.19808,161.59806   L 167.68941,159.63787   L 164.86715,157.52086   L 161.7313,155.32545   L 158.43866,153.13004   L 154.98923,150.77781   L 151.4614,148.50399   L 147.93357,146.23017   L 144.48414,144.03476   L 143.2298,148.11195   L 141.66188,152.34596   L 139.70197,156.73679   L 137.35009,161.20602   L 134.52783,165.59685  z    M 89.293238,205.42791   L 92.821065,209.34829   L 96.113704,213.5823   L 99.406344,218.12994   L 102.54219,223.06962   L 105.59964,228.40133   L 109.44105,224.48095   L 113.59605,220.7958   L 117.98624,217.18905   L 122.45482,213.81752   L 127.0018,210.44599   L 123.00359,204.40861   L 118.7702,198.68485   L 114.38001,193.19632   L 109.91143,188.02142   L 104.58049,192.09862   L 99.406344,196.33263   L 94.310592,200.72345   L 89.293238,205.42791   L 89.293238,205.42791  z    M 132.09755,168.73315   L 129.58887,171.71264   L 126.68821,174.61372   L 123.55236,177.35799   L 118.29982,181.592   L 112.96888,185.66919   L 117.51586,190.84409   L 121.90604,196.33263   L 126.13944,202.13479   L 130.21604,208.25058   L 134.52783,205.19268   L 138.76122,202.2916   L 142.75943,199.46893   L 146.52244,196.72466   L 149.97187,193.9804   L 153.02932,191.31454   L 149.4231,186.84531   L 145.50329,182.29767   L 141.2699,177.75003   L 136.72292,173.20238   L 132.09755,168.73315   L 132.09755,168.73315  z    M 117.82944,107.81045   L 117.82944,107.81045   L 117.82944,115.10235   L 118.06463,117.29777   L 118.7702,119.33636   L 119.78935,121.29655   L 121.20048,123.09993   L 122.92519,124.9033   L 124.96349,126.70668   L 127.31538,128.51005   L 129.98085,130.31343   L 131.31358,131.17591   L 132.9599,132.19521   L 134.76302,133.37132   L 136.80132,134.62585   L 138.99641,136.03718   L 141.81867,137.76215   L 142.28905,135.25311   L 142.68103,132.90088   L 142.91622,130.94069   L 143.07301,129.37254   L 143.15141,128.11802   L 143.15141,127.41235   L 143.15141,127.09872   L 143.15141,107.81045   L 147.07121,107.81045   L 147.07121,109.84905   L 147.14961,111.4172   L 147.3064,112.67172   L 147.61999,113.61261   L 148.16876,114.39669   L 148.95272,115.10235   L 149.97187,115.72962   L 150.99102,116.27847   L 152.32376,116.90573   L 154.04847,117.53299   L 155.92998,118.31707   L 157.96828,119.10114   L 160.16338,119.88522   L 162.43686,120.66929   L 164.71035,121.53178   L 166.98384,122.31585   L 169.10054,123.02152   L 172.23639,124.19764   L 172.23639,107.81045   L 117.82944,107.81045   L 117.82944,107.81045   L 117.82944,107.81045  z    M 148.01197,119.10114   L 147.54159,118.78751   L 147.07121,118.55229   L 147.07121,127.09872   L 147.07121,127.56916   L 146.99282,128.58846   L 146.91442,130.07821   L 146.75763,132.0384   L 146.44405,134.39062   L 146.05206,137.05648   L 145.4249,140.03597   L 149.26631,142.46661   L 153.18612,144.97565   L 157.10592,147.5631   L 160.94734,150.07214   L 164.63196,152.58119   L 168.00299,155.01182   L 171.13884,157.36405   L 171.60922,154.38456   L 171.9228,151.7187   L 172.15799,149.36647   L 172.23639,147.32788   L 172.23639,128.27483   L 170.19808,127.56916   L 167.8462,126.78509   L 165.25913,125.8442   L 162.67205,124.9033   L 160.08498,123.96241   L 157.49791,123.09993   L 155.06762,122.15904   L 152.87253,121.29655   L 150.91263,120.51248   L 149.26631,119.7284   L 148.01197,119.10114   L 148.01197,119.10114  z    M 63.344105,188.02142   L 58.875524,193.19632   L 54.485338,198.60645   L 50.251945,204.40861   L 46.25374,210.44599   L 50.800718,213.81752   L 55.2693,217.18905   L 59.659485,220.7958   L 63.814482,224.48095   L 67.655895,228.40133   L 70.713345,223.06962   L 73.849192,218.12994   L 77.063435,213.5823   L 80.43447,209.34829   L 83.883902,205.42791   L 78.944943,200.72345   L 73.849192,196.33263   L 68.675045,192.09862   L 63.344105,188.02142   L 63.344105,188.02142  z    M 70.478157,231.53764   L 72.751646,234.43872   L 74.868342,237.49662   L 76.671454,240.63292   L 78.239378,243.92604   L 79.493716,247.21916   L 80.43447,250.66909   L 81.06164,254.27584   L 81.218432,257.961   L 92.037104,257.961   L 92.193896,254.27584   L 92.742669,250.66909   L 93.683423,247.21916   L 94.937762,243.84763   L 96.505685,240.63292   L 98.387193,237.49662   L 100.50389,234.43872   L 102.77738,231.53764   L 99.798324,226.12751   L 96.662478,221.10943   L 93.448235,216.48338   L 90.077199,212.24937   L 86.627768,208.32899   L 83.178336,212.24937   L 79.807301,216.48338   L 76.593058,221.10943   L 73.457211,226.12751   L 70.399761,231.53764   L 70.478157,231.53764  z    M 26.184321,127.09872   L 26.184321,118.47388   L 25.713944,118.78751   L 25.165171,119.10114   L 23.989228,119.7284   L 22.342908,120.51248   L 20.383004,121.29655   L 18.187911,122.15904   L 15.75763,123.09993   L 13.170557,123.96241   L 10.583483,124.9033   L 7.9180132,125.8442   L 5.4093357,126.78509   L 3.0574506,127.56916   L 0.94075404,128.27483   L 0.94075404,147.32788   L 1.0975464,149.36647   L 1.2543387,151.7187   L 1.6463196,154.38456   L 2.1166966,157.36405   L 5.1741472,155.01182   L 8.6235787,152.58119   L 12.308199,150.07214   L 16.149611,147.48469   L 20.06942,144.97565   L 23.989228,142.46661   L 27.752244,140.03597   L 27.203471,137.05648   L 26.733094,134.39062   L 26.497905,132.0384   L 26.341113,130.07821   L 26.184321,128.58846   L 26.184321,127.56916   L 26.184321,127.09872   L 26.184321,127.09872  z    M 38.727708,165.59685   L 35.905446,161.20602   L 33.553561,156.73679   L 31.593656,152.34596   L 30.025733,148.11195   L 28.771394,144.03476   L 25.321963,146.23017   L 21.794135,148.50399   L 18.266308,150.77781   L 14.816876,153.13004   L 11.524237,155.32545   L 8.3883902,157.52086   L 5.5661281,159.63787   L 3.0574506,161.59806   L 3.9198085,164.81277   L 5.095751,168.10589   L 6.4284859,171.47742   L 7.9964093,174.92735   L 9.8779174,178.37729   L 12.07301,181.82722   L 14.581688,185.19875   L 17.40395,188.57027   L 21.08857,184.02263   L 25.165171,179.39658   L 29.47696,174.77054   L 34.023938,170.14449   L 38.727708,165.59685  z    M 23.205266,115.72962   L 24.302813,115.02395   L 25.086774,114.39669   L 25.557151,113.61261   L 25.870736,112.67172   L 26.105925,111.4172   L 26.184321,109.84905   L 26.184321,107.81045   L 30.104129,107.81045   L 30.104129,127.09872   L 30.104129,127.33394   L 30.104129,128.11802   L 30.182525,129.37254   L 30.339318,130.94069   L 30.574506,132.90088   L 30.888091,135.25311   L 31.358468,137.76215   L 34.259126,136.03718   L 36.454219,134.62585   L 38.492519,133.37132   L 40.295631,132.19521   L 41.863555,131.17591   L 43.19629,130.31343   L 45.861759,128.51005   L 48.292041,126.70668   L 50.330341,124.9033   L 52.055057,123.09993   L 53.466188,121.29655   L 54.485338,119.33636   L 55.112507,117.29777   L 55.426092,115.10235   L 55.426092,107.81045   L 55.426092,107.81045   L 55.426092,107.81045   L 0.94075404,107.81045   L 0.94075404,124.11923   L 4.0766008,123.02152   L 6.2716936,122.31585   L 8.4667864,121.53178   L 10.740275,120.66929   L 13.013764,119.88522   L 15.287253,119.10114   L 17.325554,118.31707   L 19.207062,117.53299   L 20.853381,116.82732   L 22.186116,116.27847   L 23.205266,115.72962   L 23.205266,115.72962  z   "
     style="fill:#fefefe;fill-rule:nonzero;fill-opacity:1;stroke:#fefefe;stroke-width:0.078396171px;stroke-linecap:round;stroke-linejoin:round;stroke-miterlimit:4;stroke-dasharray:none;stroke-opacity:1;" />
</svg>
